<svg width="35" height="35" viewBox="0 0 35 35" fill="none" xmlns="http://www.w3.org/2000/svg">
<path d="M26.7969 35H8.20312C3.67992 35 0 31.3201 0 26.7969V8.20312C0 3.67992 3.67992 0 8.20312 0H26.7969C31.3201 0 35 3.67992 35 8.20312V26.7969C35 31.3201 31.3201 35 26.7969 35ZM8.20312 2.73438C5.18766 2.73438 2.73438 5.18766 2.73438 8.20312V26.7969C2.73438 29.8123 5.18766 32.2656 8.20312 32.2656H26.7969C29.8123 32.2656 32.2656 29.8123 32.2656 26.7969V8.20312C32.2656 5.18766 29.8123 2.73438 26.7969 2.73438H8.20312ZM27.1387 6.15234C26.1948 6.15234 25.4297 6.91749 25.4297 7.86133C25.4297 8.80517 26.1948 9.57031 27.1387 9.57031C28.0825 9.57031 28.8477 8.80517 28.8477 7.86133C28.8477 6.91749 28.0825 6.15234 27.1387 6.15234ZM17.5 26.3867C12.5998 26.3867 8.61328 22.4002 8.61328 17.5C9.10137 5.71054 25.9004 5.71396 26.3867 17.5001C26.3867 22.4002 22.4002 26.3867 17.5 26.3867ZM17.5 11.3477C14.1076 11.3477 11.3477 14.1076 11.3477 17.5C11.6856 25.6619 23.3156 25.6595 23.6523 17.4999C23.6523 14.1076 20.8924 11.3477 17.5 11.3477Z" fill="white"/>
</svg>
