<svg width="113" height="55" viewBox="0 0 113 55" fill="none" xmlns="http://www.w3.org/2000/svg">
<path d="M11.78 22.004C11.5373 22.452 11.1267 22.676 10.548 22.676C9.988 22.676 9.61467 22.6013 9.428 22.452C9.26 22.284 9.176 21.864 9.176 21.192C9.176 20.5013 9.54 18.9147 10.268 16.432C10.996 13.9307 11.36 12.4933 11.36 12.12C11.36 11.728 11.2853 11.532 11.136 11.532C10.912 11.532 10.632 11.728 10.296 12.12C9.96 12.4933 9.68 12.8667 9.456 13.24L9.12 13.828C7.92533 15.7693 6.83333 17.72 5.844 19.68C4.87333 21.6213 4.15467 23.0493 3.688 23.964C3.24 24.86 2.848 25.4293 2.512 25.672C2.176 25.9147 1.69067 26.036 1.056 26.036C0.44 26.036 0.132 25.896 0.132 25.616V25.532C0.132 25.3453 0.617333 24.4773 1.588 22.928C5.172 17.2347 7.86933 12.5867 9.68 8.984C10.1093 8.12533 10.324 7.32267 10.324 6.576V6.24C10.324 5.904 10.7067 5.63333 11.472 5.428C12.256 5.22267 12.9 5.12 13.404 5.12H14.328C15.112 5.12 15.6907 5.26933 16.064 5.568C16.232 5.68 16.316 5.82933 16.316 6.016C16.316 6.20267 15.9427 7.5 15.196 9.908C14.468 12.2973 14.104 13.7347 14.104 14.22C14.104 14.7053 14.1787 14.948 14.328 14.948C14.7947 14.948 15.616 14.3787 16.792 13.24C17.968 12.0827 19.312 10.7013 20.824 9.096C22.056 7.752 23.232 6.59467 24.352 5.624C24.5947 5.4 24.884 5.26933 25.22 5.232C25.948 5.12 26.7227 5.064 27.544 5.064C28.384 5.064 28.804 5.25067 28.804 5.624C28.804 5.69867 28.7947 5.75467 28.776 5.792C28.776 5.82933 28.4307 6.39867 27.74 7.5C27.0493 8.58267 26.2093 9.936 25.22 11.56C24.2307 13.1653 23.2413 14.836 22.252 16.572C21.2627 18.2893 20.4227 19.932 19.732 21.5C19.0413 23.0493 18.696 24.188 18.696 24.916C18.528 25.2333 18.2667 25.392 17.912 25.392C16.064 25.392 15.14 25.0653 15.14 24.412C15.14 22.9 17.016 19.2693 20.768 13.52C21.2533 12.792 21.496 12.3347 21.496 12.148C21.496 11.9613 21.356 11.868 21.076 11.868C20.3667 11.868 18.8733 13.1373 16.596 15.676C14.3187 18.196 12.7133 20.3053 11.78 22.004ZM48.1297 5.036C48.391 5.036 48.5217 5.22267 48.5217 5.596C48.5217 5.95067 48.1577 6.79067 47.4297 8.116C46.7017 9.44133 46.095 10.44 45.6097 11.112C45.311 11.56 44.9564 11.784 44.5457 11.784C44.1537 11.784 43.9577 11.6533 43.9577 11.392L43.9857 11.14C44.2284 10.2253 44.3497 9.45067 44.3497 8.816C44.3497 7.84533 44.0884 7.36 43.5657 7.36C43.3417 7.36 43.1177 7.444 42.8937 7.612C42.6697 7.76133 42.5017 7.92 42.3897 8.088L42.2217 8.34C41.9604 8.76933 40.383 11.4387 37.4897 16.348C36.8364 17.468 36.1644 18.7467 35.4737 20.184C34.783 21.6027 34.223 22.7227 33.7937 23.544C33.3644 24.3467 32.935 24.916 32.5057 25.252C32.0764 25.6067 31.3764 25.784 30.4057 25.784C29.4537 25.784 28.9777 25.6253 28.9777 25.308V25.224C28.9777 25.0373 29.4724 24.16 30.4617 22.592C34.1017 16.8613 36.855 12.176 38.7217 8.536C38.8897 8.2 38.9737 7.95733 38.9737 7.808C38.9737 7.56533 38.815 7.444 38.4977 7.444C37.471 7.444 35.903 8.60133 33.7937 10.916C33.5884 11.2893 33.1124 11.476 32.3657 11.476C32.1977 11.476 32.1137 11.392 32.1137 11.224C32.1137 11.0933 32.235 10.8227 32.4777 10.412L33.0377 9.404C34.6804 6.52933 35.7537 5.092 36.2577 5.092C37.2284 5.092 37.9564 5.27867 38.4417 5.652C39.7484 5.61467 40.9524 5.596 42.0537 5.596C43.155 5.596 44.247 5.61467 45.3297 5.652C46.263 5.24133 47.1964 5.036 48.1297 5.036ZM59.4695 23.068C58.6481 23.8147 57.5748 24.4307 56.2495 24.916C54.9241 25.3827 53.6361 25.616 52.3855 25.616C51.1348 25.616 50.2388 25.5507 49.6975 25.42C49.1748 25.308 48.8668 25.252 48.7735 25.252C48.5868 25.252 48.4001 25.308 48.2135 25.42C47.6161 25.9613 46.8975 26.232 46.0575 26.232C45.2175 26.232 44.7975 26.0827 44.7975 25.784C44.7975 25.5787 45.4415 24.356 46.7295 22.116C48.0361 19.876 49.4735 17.384 51.0415 14.64C52.6281 11.896 53.6455 10.0107 54.0935 8.984C54.5601 7.95733 54.7935 7.07067 54.7935 6.324V6.1C54.7935 5.596 56.2401 5.344 59.1335 5.344C61.7841 5.344 63.4828 5.484 64.2295 5.764C65.2001 6.13733 65.8068 6.632 66.0495 7.248C66.1988 7.62133 66.2735 8.06933 66.2735 8.592C66.2735 9.432 65.9655 10.2253 65.3495 10.972C64.2108 12.316 62.7361 13.2027 60.9255 13.632C60.2348 13.8 59.8241 13.94 59.6935 14.052C59.5628 14.164 59.4975 14.2853 59.4975 14.416C59.4975 14.528 59.6281 14.6773 59.8895 14.864C60.1695 15.032 60.4681 15.2187 60.7855 15.424C61.1215 15.6293 61.4201 15.9653 61.6815 16.432C61.9615 16.8987 62.1015 17.496 62.1015 18.224C62.1015 18.9333 61.8681 19.7267 61.4015 20.604C60.9535 21.4813 60.3095 22.3027 59.4695 23.068ZM57.0335 21.528C57.5748 20.8747 57.9948 20.212 58.2935 19.54C58.6108 18.868 58.7695 18.308 58.7695 17.86C58.7695 17.3933 58.6948 17.0013 58.5455 16.684C58.4148 16.348 58.2561 16.096 58.0695 15.928C57.8828 15.76 57.6588 15.6293 57.3975 15.536C57.0055 15.3867 56.6135 15.312 56.2215 15.312H55.9415C55.6988 15.312 55.5775 15.228 55.5775 15.06C55.5775 14.668 55.7175 14.2573 55.9975 13.828C56.2961 13.38 56.6321 13.156 57.0055 13.156C58.5175 13.156 59.8708 12.652 61.0655 11.644C62.2601 10.636 62.8575 9.56267 62.8575 8.424C62.8575 7.43467 62.2041 6.94 60.8975 6.94C59.8148 6.94 59.0588 7.20133 58.6295 7.724C57.4535 9.18 55.7548 11.896 53.5335 15.872C51.3121 19.8293 50.2015 22.1533 50.2015 22.844C50.2015 23.124 50.3508 23.3667 50.6495 23.572C50.9668 23.7773 51.5268 23.88 52.3295 23.88C53.1508 23.88 54.0001 23.656 54.8775 23.208C55.7735 22.7413 56.4921 22.1813 57.0335 21.528Z" fill="white"/>
<path d="M16.54 46.448C16.54 48.4267 15.7187 50.088 14.076 51.432C12.452 52.7573 10.3707 53.42 7.832 53.42C6.432 53.42 5.368 53.2147 4.64 52.804C4.56533 52.7667 4.48133 52.748 4.388 52.748C4.29467 52.748 3.94933 52.8507 3.352 53.056C2.75467 53.2613 2.148 53.364 1.532 53.364C0.934667 53.364 0.636 53.1867 0.636 52.832C0.636 52.3467 1.224 51.0867 2.4 49.052C3.576 46.9987 4.62133 45.6173 5.536 44.908C5.928 44.6093 6.31067 44.46 6.684 44.46C7.05733 44.46 7.244 44.5627 7.244 44.768C7.244 44.8053 7.11333 45.0387 6.852 45.468C6.60933 45.8787 6.35733 46.4293 6.096 47.12C5.85333 47.8107 5.732 48.408 5.732 48.912C5.732 49.3973 5.77867 49.808 5.872 50.144C5.984 50.48 6.24533 50.8253 6.656 51.18C7.08533 51.516 7.59867 51.684 8.196 51.684C8.812 51.684 9.38133 51.6093 9.904 51.46C10.4453 51.3107 10.9773 51.0773 11.5 50.76C12.0227 50.4427 12.452 49.976 12.788 49.36C13.124 48.744 13.292 48.0347 13.292 47.232C13.292 46.4107 13.04 45.58 12.536 44.74C12.032 43.9 11.4813 43.1907 10.884 42.612C10.2867 42.0147 9.736 41.3427 9.232 40.596C8.728 39.8307 8.476 39.0933 8.476 38.384C8.476 37.656 8.66267 36.984 9.036 36.368C9.428 35.752 9.904 35.2667 10.464 34.912C11.0427 34.5387 11.696 34.2307 12.424 33.988C13.656 33.5773 14.748 33.372 15.7 33.372C16.652 33.372 17.352 33.4187 17.8 33.512C18.2667 33.5867 18.612 33.6613 18.836 33.736C19.0787 33.8107 19.228 33.848 19.284 33.848C19.34 33.848 19.4147 33.82 19.508 33.764C20.068 33.4467 20.6747 33.288 21.328 33.288C21.9813 33.288 22.308 33.4467 22.308 33.764C22.308 34.2867 21.6827 35.4627 20.432 37.292C19.2 39.1027 18.276 40.008 17.66 40.008C17.156 40.008 16.904 39.896 16.904 39.672C16.904 39.6347 16.9693 39.504 17.1 39.28C17.5107 38.5333 17.716 37.684 17.716 36.732C17.716 36.2093 17.492 35.808 17.044 35.528C16.596 35.2293 16.1293 35.08 15.644 35.08C15.1773 35.08 14.692 35.1547 14.188 35.304C13.7027 35.4533 13.208 35.752 12.704 36.2C12.2187 36.648 11.976 37.1893 11.976 37.824C11.976 38.44 12.2093 39.0933 12.676 39.784C13.1613 40.456 13.684 41.0813 14.244 41.66C14.8227 42.22 15.3453 42.9387 15.812 43.816C16.2973 44.6747 16.54 45.552 16.54 46.448ZM42.0867 33.036C42.3481 33.036 42.4787 33.2227 42.4787 33.596C42.4787 33.9507 42.1147 34.7907 41.3867 36.116C40.6587 37.4413 40.0521 38.44 39.5667 39.112C39.2681 39.56 38.9134 39.784 38.5027 39.784C38.1107 39.784 37.9147 39.6533 37.9147 39.392L37.9427 39.14C38.1854 38.2253 38.3067 37.4507 38.3067 36.816C38.3067 35.8453 38.0454 35.36 37.5227 35.36C37.2987 35.36 37.0747 35.444 36.8507 35.612C36.6267 35.7613 36.4587 35.92 36.3467 36.088L36.1787 36.34C35.9174 36.7693 34.3401 39.4387 31.4467 44.348C30.7934 45.468 30.1214 46.7467 29.4307 48.184C28.7401 49.6027 28.1801 50.7227 27.7507 51.544C27.3214 52.3467 26.8921 52.916 26.4627 53.252C26.0334 53.6067 25.3334 53.784 24.3627 53.784C23.4107 53.784 22.9347 53.6253 22.9347 53.308V53.224C22.9347 53.0373 23.4294 52.16 24.4187 50.592C28.0587 44.8613 30.8121 40.176 32.6787 36.536C32.8467 36.2 32.9307 35.9573 32.9307 35.808C32.9307 35.5653 32.7721 35.444 32.4547 35.444C31.4281 35.444 29.8601 36.6013 27.7507 38.916C27.5454 39.2893 27.0694 39.476 26.3227 39.476C26.1547 39.476 26.0707 39.392 26.0707 39.224C26.0707 39.0933 26.1921 38.8227 26.4347 38.412L26.9947 37.404C28.6374 34.5293 29.7107 33.092 30.2147 33.092C31.1854 33.092 31.9134 33.2787 32.3987 33.652C33.7054 33.6147 34.9094 33.596 36.0107 33.596C37.1121 33.596 38.2041 33.6147 39.2867 33.652C40.2201 33.2413 41.1534 33.036 42.0867 33.036ZM61.0001 37.908C61.0001 38.9533 60.7854 40.148 60.3561 41.492C59.9454 42.836 59.3294 44.208 58.5081 45.608C57.6867 47.008 56.7347 48.3053 55.6521 49.5C54.5881 50.676 53.3187 51.6467 51.8441 52.412C50.3881 53.1587 48.8761 53.532 47.3081 53.532C45.7587 53.532 44.5361 53.1027 43.6401 52.244C42.7441 51.3667 42.2961 50.1627 42.2961 48.632C42.2961 47.5867 42.5014 46.392 42.9121 45.048C43.3414 43.704 43.9667 42.332 44.7881 40.932C45.6094 39.532 46.5521 38.244 47.6161 37.068C48.6987 35.892 49.9681 34.9307 51.4241 34.184C52.8987 33.4187 54.4107 33.036 55.9601 33.036C57.5281 33.036 58.7601 33.4653 59.6561 34.324C60.5521 35.1827 61.0001 36.3773 61.0001 37.908ZM57.6961 37.656C57.6961 35.6027 56.9494 34.576 55.4561 34.576C54.2054 34.576 52.8054 35.3693 51.2561 36.956C49.7254 38.5427 48.4187 40.4653 47.3361 42.724C46.2721 44.964 45.7401 46.9707 45.7401 48.744C45.7401 50.7973 46.4867 51.824 47.9801 51.824C49.2121 51.824 50.6027 51.0307 52.1521 49.444C53.7014 47.8573 55.0081 45.944 56.0721 43.704C57.1547 41.4453 57.6961 39.4293 57.6961 37.656ZM75.8838 52.16L75.9398 53C75.9398 53.2987 75.4918 53.448 74.5958 53.448C73.0278 53.448 72.2438 53.1493 72.2438 52.552C72.2438 51.9547 72.6545 50.6667 73.4758 48.688C74.3158 46.7093 74.7358 45.4773 74.7358 44.992C74.7358 44.0027 74.1291 43.508 72.9158 43.508L72.4678 43.536C72.2438 43.536 72.1318 43.452 72.1318 43.284C72.1318 42.9293 72.2625 42.5747 72.5238 42.22C72.8038 41.8467 73.1491 41.66 73.5598 41.66C75.2585 41.66 76.7798 41.156 78.1238 40.148C79.4678 39.14 80.1398 38.076 80.1398 36.956C80.1398 36.1533 79.8878 35.5933 79.3838 35.276C78.8985 34.9587 78.2265 34.8 77.3678 34.8C76.5091 34.8 75.8558 35.0613 75.4078 35.584C74.3065 36.9653 72.5331 39.8587 70.0878 44.264C67.6611 48.6507 66.2985 51.348 65.9998 52.356C65.8318 52.8227 65.3931 53.168 64.6838 53.392C63.9931 53.616 63.3118 53.728 62.6398 53.728C61.9865 53.728 61.6598 53.5973 61.6598 53.336V53.28C61.6598 53.0747 62.3038 51.88 63.5918 49.696C64.8798 47.512 66.2985 45.0853 67.8478 42.416C69.4158 39.728 70.4238 37.8707 70.8718 36.844C71.3385 35.8173 71.5718 34.9493 71.5718 34.24V33.96C71.5718 33.456 72.9905 33.204 75.8278 33.204C78.8705 33.204 80.8771 33.512 81.8478 34.128C82.2585 34.3893 82.6038 34.772 82.8838 35.276C83.1825 35.78 83.3318 36.424 83.3318 37.208C83.3318 37.992 83.0145 38.7853 82.3798 39.588C81.7451 40.3907 81.0638 40.988 80.3358 41.38C79.6265 41.7533 78.9171 42.024 78.2078 42.192C77.4985 42.36 76.9665 42.5 76.6118 42.612C76.2571 42.724 76.0798 42.9013 76.0798 43.144C76.0798 43.2933 76.2105 43.48 76.4718 43.704C76.7518 43.9093 77.0318 44.1613 77.3118 44.46C77.5918 44.7587 77.7318 45.076 77.7318 45.412C77.7318 45.748 77.4238 46.7187 76.8078 48.324C76.1918 49.9107 75.8838 51.1893 75.8838 52.16ZM96.0442 43.76L93.6642 43.676C92.4882 43.676 91.5829 44.0587 90.9482 44.824C90.5002 45.384 89.9029 46.2987 89.1562 47.568C88.4282 48.8373 88.0642 49.8453 88.0642 50.592C88.0642 51.2827 88.7456 51.628 90.1082 51.628C90.9482 51.628 91.8442 51.4693 92.7962 51.152C94.7189 50.5173 96.2402 49.304 97.3602 47.512C97.4909 47.344 97.7149 47.26 98.0322 47.26C98.3496 47.26 98.5082 47.4467 98.5082 47.82C98.5082 48.1747 98.2096 48.9307 97.6122 50.088C97.0149 51.2453 96.4829 52.1133 96.0162 52.692C95.7736 52.9907 95.2976 53.1587 94.5882 53.196C93.8976 53.2333 92.8336 53.252 91.3962 53.252H88.6522L87.0562 53.224L86.3002 53.168C86.2816 53.168 86.2162 53.168 86.1042 53.168C85.9922 53.168 85.8522 53.252 85.6842 53.42C85.0682 53.9613 84.1909 54.232 83.0522 54.232C82.5109 54.232 82.2402 54.1107 82.2402 53.868V53.784C82.2402 53.5787 82.8842 52.3653 84.1722 50.144C85.4789 47.904 86.9256 45.412 88.5122 42.668C90.0989 39.924 91.1162 38.048 91.5642 37.04C92.0122 36.0133 92.2362 35.136 92.2362 34.408V34.1C92.2362 33.7827 94.2242 33.624 98.2002 33.624C99.5069 33.624 100.646 33.6427 101.616 33.68C101.896 33.3627 102.615 33.204 103.772 33.204C104.258 33.204 104.5 33.3253 104.5 33.568C104.5 33.9973 104.071 34.8653 103.212 36.172C102.372 37.46 101.635 38.3373 101 38.804C100.795 38.972 100.534 39.056 100.216 39.056C99.8989 39.056 99.7402 38.9907 99.7402 38.86C99.7402 38.804 99.7682 38.7293 99.8242 38.636C100.123 38.0573 100.272 37.404 100.272 36.676C100.272 35.6493 99.5629 35.136 98.1442 35.136C97.2856 35.136 96.6042 35.36 96.1002 35.808C95.6149 36.256 95.1296 36.8813 94.6442 37.684C94.1589 38.4867 93.7949 39.1773 93.5522 39.756C93.3282 40.3347 93.2162 40.6987 93.2162 40.848C93.2162 41.296 93.4309 41.576 93.8602 41.688C94.3082 41.7813 95.1856 41.828 96.4922 41.828L98.5642 41.744C98.7509 41.744 98.8442 41.8187 98.8442 41.968C98.8442 42.0987 98.7416 42.332 98.5362 42.668C98.3496 42.9853 98.1536 43.2093 97.9482 43.34C97.5376 43.62 96.9029 43.76 96.0442 43.76Z" fill="white"/>
<path d="M104.115 26.545C104.388 26.565 104.885 26.575 105.605 26.575C106.325 26.575 106.822 26.565 107.095 26.545V26.62C107.095 26.8833 107.115 27.1283 107.155 27.355L107.02 27.415C106.933 27.1417 106.83 26.9683 106.71 26.895C106.59 26.8217 106.363 26.785 106.03 26.785C105.93 26.785 105.875 26.83 105.865 26.92C105.838 27.1167 105.825 27.4733 105.825 27.99C105.825 28.8267 105.835 29.3467 105.855 29.55L105.865 29.655C105.872 29.715 105.903 29.7583 105.96 29.785C106.017 29.8083 106.127 29.8367 106.29 29.87L106.275 30.015C106.065 30.005 105.837 30 105.59 30C105.343 30 105.115 30.005 104.905 30.015L104.89 29.87C105.06 29.8367 105.175 29.8067 105.235 29.78C105.295 29.7533 105.328 29.7117 105.335 29.655C105.362 29.4583 105.375 29.1017 105.375 28.585C105.375 27.7483 105.365 27.2267 105.345 27.02L105.335 26.92C105.325 26.83 105.273 26.785 105.18 26.785C104.847 26.785 104.62 26.8217 104.5 26.895C104.38 26.9683 104.277 27.1417 104.19 27.415L104.055 27.355C104.095 27.1283 104.115 26.8833 104.115 26.62V26.545ZM108.258 27.37C108.225 28.2033 108.208 28.79 108.208 29.13L108.223 29.655C108.233 29.735 108.321 29.7933 108.488 29.83C108.528 29.8367 108.596 29.85 108.693 29.87L108.678 30.015C108.468 30.005 108.24 30 107.993 30C107.746 30 107.553 30.005 107.413 30.015L107.398 29.87C107.558 29.8367 107.668 29.8067 107.728 29.78C107.788 29.7533 107.821 29.7117 107.828 29.655C107.895 29.115 107.928 28.425 107.928 27.585L107.908 26.92C107.901 26.86 107.871 26.8183 107.818 26.795C107.765 26.7683 107.658 26.7383 107.498 26.705L107.513 26.56C107.723 26.57 108.013 26.575 108.383 26.575L109.573 29.525L110.763 26.575C111.143 26.575 111.438 26.57 111.648 26.56L111.663 26.705C111.503 26.7383 111.396 26.7683 111.343 26.795C111.29 26.8183 111.258 26.8617 111.248 26.925C111.238 26.9883 111.233 27.0983 111.233 27.255C111.233 27.4117 111.241 27.7567 111.258 28.29C111.291 28.95 111.318 29.3733 111.338 29.56L111.348 29.655C111.355 29.715 111.386 29.7583 111.443 29.785C111.5 29.8083 111.61 29.8367 111.773 29.87L111.758 30.015C111.548 30.005 111.32 30 111.073 30C110.826 30 110.598 30.005 110.388 30.015L110.373 29.87C110.546 29.8367 110.663 29.8067 110.723 29.78C110.786 29.7533 110.818 29.7117 110.818 29.655C110.821 29.545 110.823 29.3083 110.823 28.945C110.823 28.5817 110.801 28.0567 110.758 27.37H110.728L109.658 29.995L109.348 30.05L108.278 27.37H108.258Z" fill="white"/>
</svg>
