<svg width="35" height="35" viewBox="0 0 35 35" fill="none" xmlns="http://www.w3.org/2000/svg">
<path d="M10.5 28C8.575 28 7 29.575 7 31.5C7 33.425 8.575 35 10.5 35C12.425 35 14 33.425 14 31.5C14 29.575 12.425 28 10.5 28ZM0 0V3.5H3.5L9.8 16.8L7.35 21C7.175 21.525 7 22.225 7 22.75C7 24.675 8.575 26.25 10.5 26.25H31.5V22.75H11.2C11.025 22.75 10.85 22.575 10.85 22.4V22.2249L12.425 19.2499H25.375C26.775 19.2499 27.825 18.5499 28.35 17.4999L34.65 6.125C35 5.775 35 5.6 35 5.25C35 4.2 34.3 3.5 33.25 3.5H7.35L5.775 0H0ZM28 28C26.075 28 24.5 29.575 24.5 31.5C24.5 33.425 26.075 35 28 35C29.925 35 31.5 33.425 31.5 31.5C31.5 29.575 29.925 28 28 28Z" fill="white"/>
</svg>
