<svg width="40" height="40" viewBox="0 0 40 40" fill="none" xmlns="http://www.w3.org/2000/svg">
<path d="M3.52242 8.66748C2.23268 10.5395 1.25253 12.6414 0.658203 14.9005H9.75582L3.52242 8.66748Z" fill="#29337A"/>
<path d="M14.3989 0.800781C12.0945 1.47187 9.96042 2.54272 8.08118 3.93944L14.3989 10.2571V0.800781Z" fill="#29337A"/>
<path d="M8.55103 36.3948C10.3137 37.6282 12.2831 38.5831 14.3988 39.1993V30.5479L8.55103 36.3948Z" fill="#29337A"/>
<path d="M0.887695 25.9053C1.54899 28.0473 2.56233 30.0346 3.85738 31.8023L9.75444 25.9053H0.887695Z" fill="#29337A"/>
<path d="M3.8524 8.20312C3.74059 8.35597 3.63039 8.51101 3.52239 8.66766L9.75579 14.9007H0.658174C0.510733 15.4619 0.390398 16.0338 0.29126 16.6136H12.2636L3.8524 8.20312Z" fill="white"/>
<path d="M8.08716 36.0644C8.23933 36.1778 8.39572 36.2857 8.55102 36.3944L14.3988 30.5472V39.1986C14.9607 39.3629 15.5313 39.5047 16.1117 39.6187V28.04L8.08716 36.0644Z" fill="white"/>
<path d="M0.443481 24.1924C0.567616 24.7728 0.714128 25.3444 0.887494 25.9053H9.75432L3.85726 31.8023C4.49862 32.6786 5.20982 33.5009 5.98258 34.2614L16.0515 24.1924H0.443481Z" fill="white"/>
<path d="M14.3989 0.800401V10.2567L8.08118 3.9394C7.21021 4.58709 6.39607 5.30614 5.64172 6.08456L16.1115 16.5543V0.380371C15.5314 0.495048 14.9608 0.637169 14.3989 0.800401Z" fill="white"/>
<path d="M14.3988 25.8447L14.3387 25.9051H14.3988V25.8447Z" fill="#D32030"/>
<path d="M16.0516 24.1921H16.1116V24.1318L16.0516 24.1921Z" fill="#D32030"/>
<path d="M23.7484 16.6128H23.6907V16.6709L23.7484 16.6128Z" fill="#D32030"/>
<path d="M14.4577 14.9007L14.3987 14.8413V14.9007H14.4577Z" fill="#D32030"/>
<path d="M16.1117 16.5542V16.6133H16.1708L16.1117 16.5542Z" fill="#D32030"/>
<path d="M25.4041 34.7716V39.2549C27.5474 38.6549 29.5457 37.7092 31.333 36.4769L26.4752 31.6191C26.087 32.983 25.945 33.6881 25.4041 34.7716Z" fill="#252F6C"/>
<path d="M26.4999 9.15984L31.8029 3.85677C29.8978 2.46157 27.7365 1.39832 25.4031 0.744629V5.3501C26.0268 6.59904 26.0792 7.54804 26.4999 9.15984Z" fill="#252F6C"/>
<path d="M36.0606 31.9189C37.3961 30.1223 38.437 28.0943 39.113 25.9053H30.047L36.0606 31.9189Z" fill="#252F6C"/>
<path d="M39.3419 14.9009C38.7349 12.594 37.7254 10.4526 36.395 8.55127L30.0447 14.9009H39.3419Z" fill="#252F6C"/>
<path d="M27.6675 24.5314L29.0418 25.9058L35.6204 32.4843C35.7697 32.2973 35.9181 32.111 36.0609 31.9194L30.0473 25.9058H39.1133C39.2861 25.3452 39.4329 24.7733 39.5567 24.1929H27.796C27.7768 24.4357 27.6905 24.2902 27.6675 24.5314Z" fill="#E7E7E7"/>
<path d="M26.2922 10.163L32.2546 4.19987C32.1052 4.08401 31.9556 3.96874 31.803 3.85693L26.4999 9.16001C26.5549 9.36969 26.241 9.94822 26.2922 10.163Z" fill="#E7E7E7"/>
<path d="M25.4032 4.98168V0.744387C24.8421 0.58715 24.2708 0.453896 23.6903 0.345215V2.4121C24.3276 3.10303 24.8989 3.97087 25.4032 4.98168Z" fill="#E7E7E7"/>
<path d="M27.5326 16.6132H39.7092C39.6103 16.0333 39.4897 15.4617 39.3423 14.9003H30.045L36.3953 8.55066C35.771 7.65883 35.0772 6.82012 34.3193 6.04297L27.1666 13.195C27.3592 14.4923 27.4455 15.2457 27.5326 16.6132Z" fill="#E7E7E7"/>
<path d="M26.1854 31.3296L31.3325 36.4773C32.1886 35.8877 32.9948 35.2315 33.7471 34.5191L26.9768 27.7485C26.7607 29.0007 26.5044 30.2101 26.1854 31.3296Z" fill="#E7E7E7"/>
<path d="M23.6906 37.3503V39.6539C24.2709 39.5459 24.842 39.412 25.4034 39.2548V34.7715C24.8988 35.7827 24.3275 36.6603 23.6906 37.3503Z" fill="#E7E7E7"/>
<path d="M27.1666 13.1953L34.3186 6.04331C33.6747 5.38202 32.9843 4.76659 32.2542 4.19971L26.6344 9.82046C26.8842 10.8645 26.9976 12.0594 27.1666 13.1953Z" fill="#D71F28"/>
<path d="M19.0017 0.024658C19.3349 0.00852896 19.6671 0 19.9996 0C19.6652 0 19.3324 0.00852896 19.0017 0.024658Z" fill="#D32030"/>
<path d="M19.9995 39.9999C19.667 39.9999 19.3347 39.9907 19.0022 39.9746C19.3329 39.9913 19.6651 39.9999 19.9995 39.9999Z" fill="#D32030"/>
<path d="M19.9996 39.9999C21.2615 39.9999 22.4937 39.8777 23.6906 39.6538V37.3501C22.64 38.4888 21.411 39.9999 19.9996 39.9999Z" fill="#D32030"/>
<path d="M39.7088 16.6138H27.6904C27.8496 19.1221 27.8304 21.7015 27.6329 24.1927H39.5566C39.8452 22.8402 39.9999 21.4387 39.9999 20.0006C39.9999 18.8454 39.897 17.7155 39.7088 16.6138Z" fill="#D71F28"/>
<path d="M27.6675 24.5317C27.5564 25.7135 27.1692 26.6343 26.9766 27.749L33.7468 34.5192C34.4166 33.8845 35.0428 33.2055 35.62 32.4846L29.0418 25.9057L27.6675 24.5317Z" fill="#D71F28"/>
<path d="M23.6907 2.56071V0.345465C22.4942 0.122192 21.2619 0 19.9996 0C21.411 0 22.64 1.42231 23.6907 2.56071Z" fill="#D32030"/>
<path d="M25.4032 35.6367C25.9442 34.5529 26.408 33.3052 26.7965 31.9416L25.4032 30.5483V35.6367Z" fill="#29337A"/>
<path d="M26.9698 8.68981C26.5485 7.078 26.0269 5.61271 25.4032 4.36377V10.2558L26.9698 8.68981Z" fill="#29337A"/>
<path d="M28.0555 24.919C28.0782 24.6778 28.0987 24.4356 28.1183 24.1924H27.3289L28.0555 24.919Z" fill="white"/>
<path d="M25.4032 10.2559V4.36353C24.8986 3.35272 24.3276 2.48428 23.6903 1.79395V12.7639L27.1302 9.32401C27.0784 9.10926 27.024 8.89891 26.9697 8.68923L25.4032 10.2559Z" fill="white"/>
<path d="M23.7484 16.6136H28.1758C28.089 15.2463 27.9507 13.901 27.7583 12.604L23.7484 16.6136Z" fill="white"/>
<path d="M23.6906 38.2059C24.3279 37.515 24.8988 36.6472 25.4034 35.6364V30.548L26.7967 31.9413C27.1162 30.8212 27.3843 29.6246 27.601 28.3726L23.6906 24.4624L23.6906 38.2059Z" fill="white"/>
<path d="M23.6907 38.2057V24.4622L27.6008 28.3726C27.7931 27.2575 27.9444 26.1011 28.0552 24.9191L27.3286 24.1924H28.1181C28.3154 21.7011 28.3347 19.1218 28.1756 16.6135H23.7482L27.7578 12.6039C27.5888 11.4677 27.3798 10.3687 27.13 9.32435L23.6908 12.7642V1.79429C22.64 0.655548 21.411 0 19.9997 0C19.6671 0 19.3349 0.00852896 19.0018 0.024658C18.0181 0.0738895 17.0534 0.1949 16.1116 0.380594V16.5545L5.64161 6.0847C4.99831 6.74852 4.39993 7.45583 3.85231 8.20334L10.5499 14.9009L12.2634 16.6138H0.291167C0.103614 17.7153 0 18.8451 0 20.0003C0 21.4388 0.155379 22.8399 0.443337 24.1924H16.0517L5.98269 34.2614C6.64204 34.9091 7.34403 35.5123 8.08715 36.0643L16.1114 28.04V39.6188C17.053 39.8045 18.0184 39.9254 19.0021 39.9748C19.3347 39.9909 19.6669 40 19.9994 40C21.411 40 22.64 39.3445 23.6907 38.2057Z" fill="#E51D35"/>
</svg>
