<svg width="170" height="67" viewBox="0 0 170 67" fill="none" xmlns="http://www.w3.org/2000/svg">
<path d="M15.475 27.255C15.1717 27.815 14.6583 28.095 13.935 28.095C13.235 28.095 12.7683 28.0017 12.535 27.815C12.325 27.605 12.22 27.08 12.22 26.24C12.22 25.3767 12.675 23.3933 13.585 20.29C14.495 17.1633 14.95 15.3667 14.95 14.9C14.95 14.41 14.8567 14.165 14.67 14.165C14.39 14.165 14.04 14.41 13.62 14.9C13.2 15.3667 12.85 15.8333 12.57 16.3L12.15 17.035C10.6567 19.4617 9.29167 21.9 8.055 24.35C6.84167 26.7767 5.94333 28.5617 5.36 29.705C4.8 30.825 4.31 31.5367 3.89 31.84C3.47 32.1433 2.86333 32.295 2.07 32.295C1.3 32.295 0.915 32.12 0.915 31.77V31.665C0.915 31.4317 1.52167 30.3467 2.735 28.41C7.215 21.2933 10.5867 15.4833 12.85 10.98C13.3867 9.90667 13.655 8.90333 13.655 7.97V7.55C13.655 7.13 14.1333 6.79167 15.09 6.535C16.07 6.27833 16.875 6.15 17.505 6.15H18.66C19.64 6.15 20.3633 6.33667 20.83 6.71C21.04 6.85 21.145 7.03667 21.145 7.27C21.145 7.50333 20.6783 9.125 19.745 12.135C18.835 15.1217 18.38 16.9183 18.38 17.525C18.38 18.1317 18.4733 18.435 18.66 18.435C19.2433 18.435 20.27 17.7233 21.74 16.3C23.21 14.8533 24.89 13.1267 26.78 11.12C28.32 9.44 29.79 7.99333 31.19 6.78C31.4933 6.5 31.855 6.33667 32.275 6.29C33.185 6.15 34.1533 6.08 35.18 6.08C36.23 6.08 36.755 6.31333 36.755 6.78C36.755 6.87333 36.7433 6.94333 36.72 6.99C36.72 7.03667 36.2883 7.74833 35.425 9.125C34.5617 10.4783 33.5117 12.17 32.275 14.2C31.0383 16.2067 29.8017 18.295 28.565 20.465C27.3283 22.6117 26.2783 24.665 25.415 26.625C24.5517 28.5617 24.12 29.985 24.12 30.895C23.91 31.2917 23.5833 31.49 23.14 31.49C20.83 31.49 19.675 31.0817 19.675 30.265C19.675 28.375 22.02 23.8367 26.71 16.65C27.3167 15.74 27.62 15.1683 27.62 14.935C27.62 14.7017 27.445 14.585 27.095 14.585C26.2083 14.585 24.3417 16.1717 21.495 19.345C18.6483 22.495 16.6417 25.1317 15.475 27.255ZM60.9121 6.045C61.2388 6.045 61.4021 6.27833 61.4021 6.745C61.4021 7.18833 60.9471 8.23833 60.0371 9.895C59.1271 11.5517 58.3688 12.8 57.7621 13.64C57.3888 14.2 56.9454 14.48 56.4321 14.48C55.9421 14.48 55.6971 14.3167 55.6971 13.99L55.7321 13.675C56.0354 12.5317 56.1871 11.5633 56.1871 10.77C56.1871 9.55667 55.8604 8.95 55.2071 8.95C54.9271 8.95 54.6471 9.055 54.3671 9.265C54.0871 9.45167 53.8771 9.65 53.7371 9.86L53.5271 10.175C53.2004 10.7117 51.2288 14.0483 47.6121 20.185C46.7954 21.585 45.9554 23.1833 45.0921 24.98C44.2288 26.7533 43.5288 28.1533 42.9921 29.18C42.4554 30.1833 41.9188 30.895 41.3821 31.315C40.8454 31.7583 39.9704 31.98 38.7571 31.98C37.5671 31.98 36.9721 31.7817 36.9721 31.385V31.28C36.9721 31.0467 37.5904 29.95 38.8271 27.99C43.3771 20.8267 46.8188 14.97 49.1521 10.42C49.3621 10 49.4671 9.69667 49.4671 9.51C49.4671 9.20667 49.2688 9.055 48.8721 9.055C47.5888 9.055 45.6288 10.5017 42.9921 13.395C42.7354 13.8617 42.1404 14.095 41.2071 14.095C40.9971 14.095 40.8921 13.99 40.8921 13.78C40.8921 13.6167 41.0438 13.2783 41.3471 12.765L42.0471 11.505C44.1004 7.91167 45.4421 6.115 46.0721 6.115C47.2854 6.115 48.1954 6.34833 48.8021 6.815C50.4354 6.76833 51.9404 6.745 53.3171 6.745C54.6938 6.745 56.0588 6.76833 57.4121 6.815C58.5788 6.30166 59.7454 6.045 60.9121 6.045ZM75.0868 28.585C74.0602 29.5183 72.7185 30.2883 71.0618 30.895C69.4052 31.4783 67.7952 31.77 66.2318 31.77C64.6685 31.77 63.5485 31.6883 62.8718 31.525C62.2185 31.385 61.8335 31.315 61.7168 31.315C61.4835 31.315 61.2502 31.385 61.0168 31.525C60.2702 32.2017 59.3718 32.54 58.3218 32.54C57.2718 32.54 56.7468 32.3533 56.7468 31.98C56.7468 31.7233 57.5518 30.195 59.1618 27.395C60.7952 24.595 62.5918 21.48 64.5518 18.05C66.5352 14.62 67.8068 12.2633 68.3668 10.98C68.9502 9.69667 69.2418 8.58833 69.2418 7.655V7.375C69.2418 6.745 71.0502 6.43 74.6668 6.43C77.9802 6.43 80.1035 6.605 81.0368 6.955C82.2502 7.42166 83.0085 8.04 83.3118 8.81C83.4985 9.27667 83.5918 9.83667 83.5918 10.49C83.5918 11.54 83.2068 12.5317 82.4368 13.465C81.0135 15.145 79.1702 16.2533 76.9068 16.79C76.0435 17 75.5302 17.175 75.3668 17.315C75.2035 17.455 75.1218 17.6067 75.1218 17.77C75.1218 17.91 75.2852 18.0967 75.6118 18.33C75.9618 18.54 76.3352 18.7733 76.7318 19.03C77.1518 19.2867 77.5252 19.7067 77.8518 20.29C78.2018 20.8733 78.3768 21.62 78.3768 22.53C78.3768 23.4167 78.0852 24.4083 77.5018 25.505C76.9418 26.6017 76.1368 27.6283 75.0868 28.585ZM72.0418 26.66C72.7185 25.8433 73.2435 25.015 73.6168 24.175C74.0135 23.335 74.2118 22.635 74.2118 22.075C74.2118 21.4917 74.1185 21.0017 73.9318 20.605C73.7685 20.185 73.5702 19.87 73.3368 19.66C73.1035 19.45 72.8235 19.2867 72.4968 19.17C72.0068 18.9833 71.5168 18.89 71.0268 18.89H70.6768C70.3735 18.89 70.2218 18.785 70.2218 18.575C70.2218 18.085 70.3968 17.5717 70.7468 17.035C71.1202 16.475 71.5402 16.195 72.0068 16.195C73.8968 16.195 75.5885 15.565 77.0818 14.305C78.5752 13.045 79.3218 11.7033 79.3218 10.28C79.3218 9.04333 78.5052 8.425 76.8718 8.425C75.5185 8.425 74.5735 8.75167 74.0368 9.405C72.5668 11.225 70.4435 14.62 67.6668 19.59C64.8902 24.5367 63.5018 27.4417 63.5018 28.305C63.5018 28.655 63.6885 28.9583 64.0618 29.215C64.4585 29.4717 65.1585 29.6 66.1618 29.6C67.1885 29.6 68.2502 29.32 69.3468 28.76C70.4668 28.1767 71.3652 27.4767 72.0418 26.66Z" fill="white"/>
<path d="M20.425 56.2876C20.425 58.7609 19.3983 60.8376 17.345 62.5176C15.315 64.1743 12.7133 65.0026 9.54 65.0026C7.79 65.0026 6.46 64.7459 5.55 64.2326C5.45667 64.1859 5.35167 64.1626 5.235 64.1626C5.11833 64.1626 4.68667 64.2909 3.94 64.5476C3.19333 64.8043 2.435 64.9326 1.665 64.9326C0.918333 64.9326 0.545 64.7109 0.545 64.2676C0.545 63.6609 1.28 62.0859 2.75 59.5426C4.22 56.9759 5.52667 55.2493 6.67 54.3626C7.16 53.9893 7.63833 53.8026 8.105 53.8026C8.57167 53.8026 8.805 53.9309 8.805 54.1876C8.805 54.2343 8.64167 54.5259 8.315 55.0626C8.01167 55.5759 7.69667 56.2643 7.37 57.1276C7.06667 57.9909 6.915 58.7376 6.915 59.3676C6.915 59.9743 6.97333 60.4876 7.09 60.9076C7.23 61.3276 7.55667 61.7593 8.07 62.2026C8.60667 62.6226 9.24833 62.8326 9.995 62.8326C10.765 62.8326 11.4767 62.7393 12.13 62.5526C12.8067 62.3659 13.4717 62.0743 14.125 61.6776C14.7783 61.2809 15.315 60.6976 15.735 59.9276C16.155 59.1576 16.365 58.2709 16.365 57.2676C16.365 56.2409 16.05 55.2026 15.42 54.1526C14.79 53.1026 14.1017 52.2159 13.355 51.4926C12.6083 50.7459 11.92 49.9059 11.29 48.9726C10.66 48.0159 10.345 47.0943 10.345 46.2076C10.345 45.2976 10.5783 44.4576 11.045 43.6876C11.535 42.9176 12.13 42.3109 12.83 41.8676C13.5533 41.4009 14.37 41.0159 15.28 40.7126C16.82 40.1993 18.185 39.9426 19.375 39.9426C20.565 39.9426 21.44 40.0009 22 40.1176C22.5833 40.2109 23.015 40.3043 23.295 40.3976C23.5983 40.4909 23.785 40.5376 23.855 40.5376C23.925 40.5376 24.0183 40.5026 24.135 40.4326C24.835 40.0359 25.5933 39.8376 26.41 39.8376C27.2267 39.8376 27.635 40.0359 27.635 40.4326C27.635 41.0859 26.8533 42.5559 25.29 44.8426C23.75 47.1059 22.595 48.2376 21.825 48.2376C21.195 48.2376 20.88 48.0976 20.88 47.8176C20.88 47.7709 20.9617 47.6076 21.125 47.3276C21.6383 46.3943 21.895 45.3326 21.895 44.1426C21.895 43.4893 21.615 42.9876 21.055 42.6376C20.495 42.2643 19.9117 42.0776 19.305 42.0776C18.7217 42.0776 18.115 42.1709 17.485 42.3576C16.8783 42.5443 16.26 42.9176 15.63 43.4776C15.0233 44.0376 14.72 44.7143 14.72 45.5076C14.72 46.2776 15.0117 47.0943 15.595 47.9576C16.2017 48.7976 16.855 49.5793 17.555 50.3026C18.2783 51.0026 18.9317 51.9009 19.515 52.9976C20.1217 54.0709 20.425 55.1676 20.425 56.2876ZM52.3584 39.5226C52.6851 39.5226 52.8484 39.7559 52.8484 40.2226C52.8484 40.6659 52.3934 41.7159 51.4834 43.3726C50.5734 45.0293 49.8151 46.2776 49.2084 47.1176C48.8351 47.6776 48.3917 47.9576 47.8784 47.9576C47.3884 47.9576 47.1434 47.7943 47.1434 47.4676L47.1784 47.1526C47.4817 46.0093 47.6334 45.0409 47.6334 44.2476C47.6334 43.0343 47.3067 42.4276 46.6534 42.4276C46.3734 42.4276 46.0934 42.5326 45.8134 42.7426C45.5334 42.9293 45.3234 43.1276 45.1834 43.3376L44.9734 43.6526C44.6467 44.1893 42.6751 47.5259 39.0584 53.6626C38.2417 55.0626 37.4017 56.6609 36.5384 58.4576C35.6751 60.2309 34.9751 61.6309 34.4384 62.6576C33.9017 63.6609 33.3651 64.3726 32.8284 64.7926C32.2917 65.2359 31.4167 65.4576 30.2034 65.4576C29.0134 65.4576 28.4184 65.2593 28.4184 64.8626V64.7576C28.4184 64.5243 29.0367 63.4276 30.2734 61.4676C34.8234 54.3043 38.2651 48.4476 40.5984 43.8976C40.8084 43.4776 40.9134 43.1743 40.9134 42.9876C40.9134 42.6843 40.7151 42.5326 40.3184 42.5326C39.0351 42.5326 37.0751 43.9793 34.4384 46.8726C34.1817 47.3393 33.5867 47.5726 32.6534 47.5726C32.4434 47.5726 32.3384 47.4676 32.3384 47.2576C32.3384 47.0943 32.4901 46.7559 32.7934 46.2426L33.4934 44.9826C35.5467 41.3893 36.8884 39.5926 37.5184 39.5926C38.7317 39.5926 39.6417 39.8259 40.2484 40.2926C41.8817 40.2459 43.3867 40.2226 44.7634 40.2226C46.1401 40.2226 47.5051 40.2459 48.8584 40.2926C50.0251 39.7793 51.1917 39.5226 52.3584 39.5226ZM76.0001 45.6126C76.0001 46.9193 75.7317 48.4126 75.1951 50.0926C74.6817 51.7726 73.9117 53.4876 72.8851 55.2376C71.8584 56.9876 70.6684 58.6093 69.3151 60.1026C67.9851 61.5726 66.3984 62.7859 64.5551 63.7426C62.7351 64.6759 60.8451 65.1426 58.8851 65.1426C56.9484 65.1426 55.4201 64.6059 54.3001 63.5326C53.1801 62.4359 52.6201 60.9309 52.6201 59.0176C52.6201 57.7109 52.8767 56.2176 53.3901 54.5376C53.9267 52.8576 54.7084 51.1426 55.7351 49.3926C56.7617 47.6426 57.9401 46.0326 59.2701 44.5626C60.6234 43.0926 62.2101 41.8909 64.0301 40.9576C65.8734 40.0009 67.7634 39.5226 69.7001 39.5226C71.6601 39.5226 73.2001 40.0593 74.3201 41.1326C75.4401 42.2059 76.0001 43.6993 76.0001 45.6126ZM71.8701 45.2976C71.8701 42.7309 70.9367 41.4476 69.0701 41.4476C67.5067 41.4476 65.7567 42.4393 63.8201 44.4226C61.9067 46.4059 60.2734 48.8093 58.9201 51.6326C57.5901 54.4326 56.9251 56.9409 56.9251 59.1576C56.9251 61.7243 57.8584 63.0076 59.7251 63.0076C61.2651 63.0076 63.0034 62.0159 64.9401 60.0326C66.8767 58.0493 68.5101 55.6576 69.8401 52.8576C71.1934 50.0343 71.8701 47.5143 71.8701 45.2976ZM94.6048 63.4276L94.6748 64.4776C94.6748 64.8509 94.1148 65.0376 92.9948 65.0376C91.0348 65.0376 90.0548 64.6643 90.0548 63.9176C90.0548 63.1709 90.5681 61.5609 91.5948 59.0876C92.6448 56.6143 93.1698 55.0743 93.1698 54.4676C93.1698 53.2309 92.4114 52.6126 90.8948 52.6126L90.3348 52.6476C90.0548 52.6476 89.9148 52.5426 89.9148 52.3326C89.9148 51.8893 90.0781 51.4459 90.4048 51.0026C90.7548 50.5359 91.1864 50.3026 91.6998 50.3026C93.8231 50.3026 95.7248 49.6726 97.4048 48.4126C99.0848 47.1526 99.9248 45.8226 99.9248 44.4226C99.9248 43.4193 99.6098 42.7193 98.9798 42.3226C98.3731 41.9259 97.5331 41.7276 96.4598 41.7276C95.3864 41.7276 94.5698 42.0543 94.0098 42.7076C92.6331 44.4343 90.4164 48.0509 87.3598 53.5576C84.3264 59.0409 82.6231 62.4126 82.2498 63.6726C82.0398 64.2559 81.4914 64.6876 80.6048 64.9676C79.7414 65.2476 78.8898 65.3876 78.0498 65.3876C77.2331 65.3876 76.8248 65.2243 76.8248 64.8976V64.8276C76.8248 64.5709 77.6298 63.0776 79.2398 60.3476C80.8498 57.6176 82.6231 54.5843 84.5598 51.2476C86.5198 47.8876 87.7798 45.5659 88.3398 44.2826C88.9231 42.9993 89.2148 41.9143 89.2148 41.0276V40.6776C89.2148 40.0476 90.9881 39.7326 94.5348 39.7326C98.3381 39.7326 100.846 40.1176 102.06 40.8876C102.573 41.2143 103.005 41.6926 103.355 42.3226C103.728 42.9526 103.915 43.7576 103.915 44.7376C103.915 45.7176 103.518 46.7093 102.725 47.7126C101.931 48.7159 101.08 49.4626 100.17 49.9526C99.2831 50.4193 98.3964 50.7576 97.5098 50.9676C96.6231 51.1776 95.9581 51.3526 95.5148 51.4926C95.0714 51.6326 94.8498 51.8543 94.8498 52.1576C94.8498 52.3443 95.0131 52.5776 95.3398 52.8576C95.6898 53.1143 96.0398 53.4293 96.3898 53.8026C96.7398 54.1759 96.9148 54.5726 96.9148 54.9926C96.9148 55.4126 96.5298 56.6259 95.7598 58.6326C94.9898 60.6159 94.6048 62.2143 94.6048 63.4276ZM119.805 52.9276L116.83 52.8226C115.36 52.8226 114.229 53.3009 113.435 54.2576C112.875 54.9576 112.129 56.1009 111.195 57.6876C110.285 59.2743 109.83 60.5343 109.83 61.4676C109.83 62.3309 110.682 62.7626 112.385 62.7626C113.435 62.7626 114.555 62.5643 115.745 62.1676C118.149 61.3743 120.05 59.8576 121.45 57.6176C121.614 57.4076 121.894 57.3026 122.29 57.3026C122.687 57.3026 122.885 57.5359 122.885 58.0026C122.885 58.4459 122.512 59.3909 121.765 60.8376C121.019 62.2843 120.354 63.3693 119.77 64.0926C119.467 64.4659 118.872 64.6759 117.985 64.7226C117.122 64.7693 115.792 64.7926 113.995 64.7926H110.565L108.57 64.7576L107.625 64.6876C107.602 64.6876 107.52 64.6876 107.38 64.6876C107.24 64.6876 107.065 64.7926 106.855 65.0026C106.085 65.6793 104.989 66.0176 103.565 66.0176C102.889 66.0176 102.55 65.8659 102.55 65.5626V65.4576C102.55 65.2009 103.355 63.6843 104.965 60.9076C106.599 58.1076 108.407 54.9926 110.39 51.5626C112.374 48.1326 113.645 45.7876 114.205 44.5276C114.765 43.2443 115.045 42.1476 115.045 41.2376V40.8526C115.045 40.4559 117.53 40.2576 122.5 40.2576C124.134 40.2576 125.557 40.2809 126.77 40.3276C127.12 39.9309 128.019 39.7326 129.465 39.7326C130.072 39.7326 130.375 39.8843 130.375 40.1876C130.375 40.7243 129.839 41.8093 128.765 43.4426C127.715 45.0526 126.794 46.1493 126 46.7326C125.744 46.9426 125.417 47.0476 125.02 47.0476C124.624 47.0476 124.425 46.9659 124.425 46.8026C124.425 46.7326 124.46 46.6393 124.53 46.5226C124.904 45.7993 125.09 44.9826 125.09 44.0726C125.09 42.7893 124.204 42.1476 122.43 42.1476C121.357 42.1476 120.505 42.4276 119.875 42.9876C119.269 43.5476 118.662 44.3293 118.055 45.3326C117.449 46.3359 116.994 47.1993 116.69 47.9226C116.41 48.6459 116.27 49.1009 116.27 49.2876C116.27 49.8476 116.539 50.1976 117.075 50.3376C117.635 50.4543 118.732 50.5126 120.365 50.5126L122.955 50.4076C123.189 50.4076 123.305 50.5009 123.305 50.6876C123.305 50.8509 123.177 51.1426 122.92 51.5626C122.687 51.9593 122.442 52.2393 122.185 52.4026C121.672 52.7526 120.879 52.9276 119.805 52.9276Z" fill="white"/>
<path d="M133.161 32.6411C133.544 32.6691 134.239 32.6831 135.247 32.6831C136.255 32.6831 136.95 32.6691 137.333 32.6411V32.7461C137.333 33.1148 137.361 33.4578 137.417 33.7751L137.228 33.8591C137.107 33.4765 136.962 33.2338 136.794 33.1311C136.626 33.0285 136.309 32.9771 135.842 32.9771C135.702 32.9771 135.625 33.0401 135.611 33.1661C135.574 33.4415 135.555 33.9408 135.555 34.6641C135.555 35.8355 135.569 36.5635 135.597 36.8481L135.611 36.9951C135.62 37.0791 135.665 37.1398 135.744 37.1771C135.823 37.2098 135.977 37.2495 136.206 37.2961L136.185 37.4991C135.891 37.4851 135.571 37.4781 135.226 37.4781C134.881 37.4781 134.561 37.4851 134.267 37.4991L134.246 37.2961C134.484 37.2495 134.645 37.2075 134.729 37.1701C134.813 37.1328 134.86 37.0745 134.869 36.9951C134.906 36.7198 134.925 36.2205 134.925 35.4971C134.925 34.3258 134.911 33.5955 134.883 33.3061L134.869 33.1661C134.855 33.0401 134.783 32.9771 134.652 32.9771C134.185 32.9771 133.868 33.0285 133.7 33.1311C133.532 33.2338 133.387 33.4765 133.266 33.8591L133.077 33.7751C133.133 33.4578 133.161 33.1148 133.161 32.7461V32.6411ZM138.961 33.7961C138.915 34.9628 138.891 35.7841 138.891 36.2601L138.912 36.9951C138.926 37.1071 139.05 37.1888 139.283 37.2401C139.339 37.2495 139.435 37.2681 139.57 37.2961L139.549 37.4991C139.255 37.4851 138.936 37.4781 138.59 37.4781C138.245 37.4781 137.974 37.4851 137.778 37.4991L137.757 37.2961C137.981 37.2495 138.135 37.2075 138.219 37.1701C138.303 37.1328 138.35 37.0745 138.359 36.9951C138.453 36.2391 138.499 35.2731 138.499 34.0971L138.471 33.1661C138.462 33.0821 138.42 33.0238 138.345 32.9911C138.271 32.9538 138.121 32.9118 137.897 32.8651L137.918 32.6621C138.212 32.6761 138.618 32.6831 139.136 32.6831L140.802 36.8131L142.468 32.6831C143 32.6831 143.413 32.6761 143.707 32.6621L143.728 32.8651C143.504 32.9118 143.355 32.9538 143.28 32.9911C143.206 33.0238 143.161 33.0845 143.147 33.1731C143.133 33.2618 143.126 33.4158 143.126 33.6351C143.126 33.8545 143.138 34.3375 143.161 35.0841C143.208 36.0081 143.245 36.6008 143.273 36.8621L143.287 36.9951C143.297 37.0791 143.341 37.1398 143.42 37.1771C143.5 37.2098 143.654 37.2495 143.882 37.2961L143.861 37.4991C143.567 37.4851 143.248 37.4781 142.902 37.4781C142.557 37.4781 142.237 37.4851 141.943 37.4991L141.922 37.2961C142.165 37.2495 142.328 37.2075 142.412 37.1701C142.501 37.1328 142.545 37.0745 142.545 36.9951C142.55 36.8411 142.552 36.5098 142.552 36.0011C142.552 35.4925 142.522 34.7575 142.461 33.7961H142.419L140.921 37.4711L140.487 37.5481L138.989 33.7961H138.961Z" fill="white"/>
</svg>
